<?xml version="1.0" encoding="utf-8"?>
<!-- Generator: Adobe Illustrator 21.0.0, SVG Export Plug-In . SVG Version: 6.00 Build 0)  -->
<svg version="1.2" baseProfile="tiny" id="Layer_1" xmlns="http://www.w3.org/2000/svg" xmlns:xlink="http://www.w3.org/1999/xlink"
	 x="0px" y="0px" viewBox="0 0 123.5 20.9" xml:space="preserve">
<path fill-rule="evenodd" fill="#FFFFFF" d="M63.3,13.7c-1.1,1.7-3.1,3-6.4,3.1c-0.2,0-0.3,0-0.5,0c-4.5,0-6.4-2.1-6.9-4.6
	c-0.6-3.1,1-7.5,6.6-8.1c0.4,0,0.8-0.1,1.3-0.1c3.4,0,5.3,1.2,6.3,2.9c0.3,0.5,0.5,1.1,0.6,1.7C64.6,10.3,64.3,12.2,63.3,13.7
	 M8.3,12h1.8c3.4,0,5.2,0.3,5.5,2c0.4,1.9-2,2.7-5.8,2.7h-2L8.3,12z M27.1,0.5h7.6l-1.6,16H40c0,0,1.7,2.4,4.9,4
	c-0.9,0-4.4,0-19.9,0L27.1,0.5z M98.1,0.4h7.7l-0.9,8.2h0.1l8.7-8.2h9.8l-11.7,9.8l10.4,10.4h-8.8l-8.7-9.2h-0.1l-1,9.2h-7.7
	L98.1,0.4z M0,20.5l12.8-0.1c6.4-0.1,11.2-2.1,10.4-6.3c-0.4-2.2-2.9-3.5-6.2-3.9l0-0.1c4.4-0.4,6.9-2.4,6.4-5.1
	c-0.7-3.8-5.9-4.6-8.8-4.6H2.1L0,20.5z M9.2,4.3h1.9c2.8,0,4.7,0.3,5,1.9c0.3,1.4-1.4,2.3-4.6,2.3H8.7L9.2,4.3z M86.8,4.6
	c2,0,4.6-0.1,8.1,0.4l0.5-4.3c0,0-4.6-0.8-10.1-0.7c-6.3,0.2-11.5,1.6-14.7,4c-1.5-1.4-3.7-2.5-6.7-3.2c-1.9-0.4-4.1-0.7-6.6-0.7
	c-12.4,0-17.9,4.9-16.5,12.5c0.8,4.1,5.4,8.1,15.9,8.1c2.9,0,5.4-0.3,7.5-0.8c2.4-0.6,4.3-1.4,5.8-2.6c0.7,0.5,1.5,1,2.5,1.4
	c3.2,1.4,6.9,2.1,11.7,2c2.4,0,8.9-0.8,8.9-0.8l0.6-4.9c0,0-5.7,1.1-8.1,1.2c-5.6,0.1-9.1-2-9.1-5.3C76.2,7.3,80.5,4.6,86.8,4.6z"/>
</svg>
